<svg width="24" height="30" viewBox="0 0 24 30" fill="none" xmlns="http://www.w3.org/2000/svg">
<path d="M2.66667 5.13904V17.3851C2.66667 19.1683 3.55787 20.8335 5.0416 21.8227L12 26.4616L18.9584 21.8227C20.4421 20.8335 21.3333 19.1683 21.3333 17.3851V5.13904L12 3.06497L2.66667 5.13904ZM1.04409 2.76789L12 0.333252L22.9559 2.76789C23.566 2.90347 24 3.44455 24 4.06948V17.3851C24 20.0599 22.6632 22.5577 20.4376 24.0415L12 29.6665L3.5624 24.0415C1.33681 22.5577 0 20.0599 0 17.3851V4.06948C0 3.44455 0.43404 2.90347 1.04409 2.76789ZM12 16.9999L8.0814 19.06L8.8298 14.6965L5.65963 11.6064L10.0407 10.9698L12 6.99992L13.9593 10.9698L18.3404 11.6064L15.1701 14.6965L15.9185 19.06L12 16.9999Z" fill="white"/>
</svg>
